<?xml version="1.0" encoding="UTF-8"?>
<svg fill="none" viewBox="0 0 154 30" xmlns="http://www.w3.org/2000/svg">
<g clip-path="url(#a)">
<path d="M0 0h9.079c4.26 0 7.594 2.408 7.594 6.853 0 3-1.667 5.927-6.297 6.482 3.519.111 5.186 1.444 6.112 3.888l2.037 5.371h-5.745l-2.408-6.666c-.556-1.52-1.296-1.852-2.408-1.852H5.186v8.518H0V0zm8.334 9.624c1.852 0 2.778-.926 2.778-2.593s-.926-2.593-2.778-2.593H5.186v5.186h3.149zm16.67 12.963h-4.815V7.038h4.815v15.548zm7.741-9.26c.556-5.037 2.704-6.668 4.815-6.668 2.815 0 4.445 1.741 4.445 4.815v11.111H37.19v-9.805c0-1.482-.556-2.037-1.482-2.037-2.444 0-2.963 5.037-2.963 11.111v.741H27.93V7.038h4.445l.37 6.288zm26.855 10.925c0 3.334-2.408 5.741-9.079 5.741-5.927 0-7.223-1.482-7.223-3.334 0-1.556 1.52-2.704 3.889-2.853-1.667-.407-2.593-1.407-2.593-3.074 0-1.444 1.222-2.814 3.297-3.481-2.112-.777-3.483-2.444-3.483-5.037 0-3.74 2.852-5.556 6.667-5.556.903-.017 1.802.105 2.667.363l5.111-.363v3.343h-1.705a4.24 4.24 0 0 1 .594 2.222c0 3.741-2.852 5.556-6.667 5.556-.836-.001-1.669-.101-2.482-.298-.443.334-.666.705-.666 1.037 0 .519.296.926 1.296.926h4.63c2.775 0 5.745 1.111 5.745 4.815v-.009zm-4.815.556c0-.741-.741-.926-1.667-.926h-5.371c-.147.149-.363.481-.363 1.111 0 1.075 1.111 1.296 3.149 1.296 3.512.018 4.252-.51 4.252-1.473v-.009zm-5.741-12.592c0 1.482.962 2.037 2.037 2.037s2.037-.556 2.037-2.037-.962-2.037-2.037-2.037-2.037.565-2.037 2.046v-.009zm18.074-7.779h-5.927V0h17.046v4.445h-5.936v18.158h-5.184V4.436zm34.817 2.593L97.94 22.584h-6.858l-1.554-7.406-1.592 7.406h-6.853L77.119 7.029h5.186l2.297 11.481 2.333-11.481h5.369l2.297 11.481L96.94 7.038l4.995-.009zm6.299 15.556h-4.816V7.038h4.816v15.547zm12.556-5.927h4.445c0 3.704-2.927 6.297-7.038 6.297-5.073 0-7.592-3.481-7.592-8.147s2.889-8.149 7.962-8.149c4.111 0 6.668 2.593 6.668 6.297h-4.445c0-1.52-.89-2.593-2.593-2.593-1.634 0-2.778 1.186-2.778 4.445s1.149 4.443 2.778 4.443c1.703.009 2.593-1.064 2.593-2.584v-.009zm20.881-.739h-9.954c.182 2.333 1.001 3.517 2.742 3.517 2.074 0 2.591-1.073 2.776-2.037h4.445c-.181 2.408-2.222 5.556-7.406 5.556-5.084 0-7.409-3.481-7.409-8.147s2.779-8.149 7.779-8.149c4.296 0 7.036 2.593 7.036 7.777l-.009 1.483zm-4.813-2.963c0-1.705-.705-2.778-2.408-2.778-1.297 0-2.297.741-2.631 2.778h5.039z" fill="#171717"/>
<path d="M150.452 13.645c1.774-.383 2.922-2.193 2.653-3.94-.242-1.56-1.164-2.33-2.348-2.778s-2.495-.098-3.435.75c-1.413 1.271-1.87 3.415-.643 4.948.935 1.168 2.42 1.313 3.773 1.02z" fill="#ff9800"/>
<path d="M148.747 15.737c-1.147.261-2.191 1.001-2.647 2.124-.438 1.089-.151 2.226.506 3.194s1.791 1.678 2.96 1.678c3.145 0 4.588-3.074 3.292-5.413-.639-1.153-2.01-1.725-3.305-1.687a4.32 4.32 0 0 0-.806.104h0z" fill="#ff478f"/>
</g>
<defs>
<clipPath id="a">
<path d="M0 0h153.332v30H0z" fill="#fff"/>
</clipPath>
</defs>
</svg>
